<svg xmlns="http://www.w3.org/2000/svg" viewBox="0 0 415 417"><style type="text/css">  
	.st0{clip-path:url(#SVGID_2_);}
</style><defs><rect x="3" y="6" width="409" height="409"/></defs><clipPath><use xlink:href="#SVGID_1_"/></clipPath><path class="st0" d="M73 338.8c-1.6 0-3.1 0.6-4.2 1.8 -1.1 1.1-1.8 2.7-1.8 4.2 0 1.6 0.6 3.1 1.8 4.2 1.1 1.1 2.7 1.8 4.2 1.8 1.6 0 3.1-0.6 4.2-1.8 1.1-1.1 1.8-2.7 1.8-4.2 0-1.6-0.6-3.1-1.8-4.2C76.1 339.4 74.6 338.8 73 338.8L73 338.8zM73 338.8"/><path class="st0" d="M401.6 276.6l-46.7 46.7c-3.8-2.3-8.3-3.7-13.1-3.7 -5 0-9.6 1.5-13.6 4 -0.3-0.8-0.8-1.6-1.4-2.2l-64-64c-0.3-0.3-0.6-0.6-0.9-0.8l4.3-72.3c1.1-0.2 2.2-0.8 3.1-1.6l83.2-83.2c0.3-0.3 0.6-0.6 0.8-1 0.5-0.3 1.1-0.6 1.6-0.9l46.7 46.7c1.2 1.2 2.7 1.8 4.2 1.8 1.5 0 3.1-0.6 4.2-1.8 2.3-2.3 2.3-6.1 0-8.5l-46.7-46.7c2.3-3.8 3.7-8.3 3.7-13.1 0-13.9-11.3-25.2-25.2-25.2 -4.8 0-9.3 1.3-13.1 3.7L282 7.8c-2.3-2.3-6.1-2.3-8.5 0 -2.3 2.3-2.3 6.1 0 8.5l46.7 46.7c-2.3 3.8-3.7 8.3-3.7 13.1 0 1.1 0.1 2.1 0.2 3.1l-60.1 42.1c-1.6-2.3-3.4-4.5-5.4-6.7 -11.5-12.2-27.1-18.9-43.9-18.9 -16.8 0-32.4 6.7-43.9 18.9 -2 2.1-3.8 4.3-5.4 6.7L98 79.1c0.1-1 0.2-2.1 0.2-3.1 0-4.8-1.3-9.2-3.7-13.1l46.7-46.7c2.3-2.3 2.3-6.1 0-8.5 -2.3-2.3-6.1-2.3-8.5 0L86.1 54.5c-3.8-2.3-8.3-3.7-13.1-3.7 -13.9 0-25.2 11.3-25.2 25.2 0 4.8 1.3 9.3 3.7 13.1L4.8 135.8c-2.3 2.3-2.3 6.1 0 8.5 1.2 1.2 2.7 1.8 4.2 1.8 1.5 0 3.1-0.6 4.2-1.8l46.7-46.7c0.5 0.3 1.1 0.6 1.6 0.9 0.2 0.4 0.5 0.7 0.8 1l83.2 83.2c0.9 0.9 2 1.4 3.1 1.6l4.3 72.3c-0.3 0.2-0.7 0.5-0.9 0.8l-64 64c-0.6 0.6-1.1 1.4-1.4 2.2 -3.9-2.5-8.6-4-13.6-4 -4.8 0-9.3 1.3-13.1 3.7l-46.7-46.7c-2.3-2.3-6.1-2.3-8.5 0 -2.3 2.3-2.3 6.1 0 8.5l46.7 46.7c-2.3 3.8-3.7 8.3-3.7 13.1 0 13.9 11.3 25.2 25.2 25.2 4.8 0 9.3-1.3 13.1-3.7l46.7 46.7c1.2 1.2 2.7 1.8 4.2 1.8 1.5 0 3.1-0.6 4.2-1.8 2.3-2.3 2.3-6.1 0-8.5l-45.5-45.5 73.2-39.4c5.1 3.5 11.2 5.5 17.8 5.5h41.3c6.6 0 12.7-2 17.8-5.5l73.2 39.4 -45.5 45.5c-2.3 2.3-2.3 6.1 0 8.5 1.2 1.2 2.7 1.8 4.2 1.8 1.5 0 3.1-0.6 4.2-1.8l46.7-46.7c3.8 2.3 8.3 3.7 13.1 3.7 13.9 0 25.2-11.3 25.2-25.2 0-4.8-1.3-9.3-3.7-13.1L410 285c2.3-2.3 2.3-6.1 0-8.5C407.7 274.2 403.9 274.2 401.6 276.6L401.6 276.6zM318.4 329.8c0.6 0.6 1.4 1.1 2.2 1.4 -2.4 3.7-3.8 8.1-4 12.9l-62-33.4c2.9-4.4 4.7-9.6 5-15.3l1.4-23L318.4 329.8zM341.8 62.8c7.3 0 13.2 5.9 13.2 13.2 0 7.3-5.9 13.2-13.2 13.2 -7.3 0-13.2-5.9-13.2-13.2C328.6 68.7 334.5 62.8 341.8 62.8L341.8 62.8zM321.3 90.6c3.2 4.5 7.9 7.9 13.4 9.6l-67.6 67.6 0.5-8.3c0.6-9.7-1.2-19.2-4.9-27.8L321.3 90.6zM172.2 122.8c1.1-1.2 2.3-2.3 3.6-3.4v14.2c0 3.3 2.7 6 6 6 3.3 0 6-2.7 6-6v-19.2c0-0.9-0.2-1.7-0.5-2.4 6.2-2.8 13-4.4 20.1-4.4 7.1 0 13.9 1.5 20.1 4.4 -0.3 0.7-0.5 1.6-0.5 2.4v19.2c0 3.3 2.7 6 6 6 3.3 0 6-2.7 6-6v-14.2c1.2 1.1 2.4 2.2 3.6 3.4 9.2 9.8 13.9 22.6 13.1 36l-8 136c-0.4 6.3-3.7 11.8-8.6 15.1V159.2c0-3.3-2.7-6-6-6 -3.3 0-6 2.7-6 6v153.6c0 0.1 0 0.3 0 0.4h-39.2c0-0.1 0-0.3 0-0.4V159.2c0-3.3-2.7-6-6-6 -3.3 0-6 2.7-6 6v150.7c-4.9-3.3-8.3-8.8-8.6-15.1l-8-136C158.4 145.3 163 132.6 172.2 122.8L172.2 122.8zM73 62.8c7.3 0 13.2 5.9 13.2 13.2 0 7.3-5.9 13.2-13.2 13.2 -7.3 0-13.2-5.9-13.2-13.2C59.8 68.7 65.7 62.8 73 62.8L73 62.8zM80.1 100.2c5.5-1.6 10.2-5 13.4-9.6l58.6 41c-3.8 8.6-5.5 18.1-4.9 27.8l0.5 8.3L80.1 100.2zM153.8 272.4l1.4 23c0.3 5.6 2.1 10.8 5 15.3l-62 33.4c-0.1-4.7-1.6-9.1-4-12.9 0.8-0.3 1.6-0.8 2.2-1.4L153.8 272.4zM73 358c-7.3 0-13.2-5.9-13.2-13.2 0-7.3 5.9-13.2 13.2-13.2 7.3 0 13.2 5.9 13.2 13.2C86.2 352.1 80.3 358 73 358L73 358zM341.8 358c-7.3 0-13.2-5.9-13.2-13.2 0-7.3 5.9-13.2 13.2-13.2 7.3 0 13.2 5.9 13.2 13.2C355 352.1 349.1 358 341.8 358L341.8 358zM341.8 358"/><path d="M341.8 338.8c-1.6 0-3.1 0.6-4.2 1.8 -1.1 1.1-1.8 2.7-1.8 4.2 0 1.6 0.6 3.1 1.8 4.2 1.1 1.1 2.7 1.8 4.2 1.8 1.6 0 3.1-0.6 4.2-1.8 1.1-1.1 1.8-2.7 1.8-4.2 0-1.6-0.6-3.1-1.8-4.2C344.9 339.4 343.4 338.8 341.8 338.8L341.8 338.8zM341.8 338.8"/><path d="M341.8 82c1.6 0 3.1-0.6 4.2-1.8 1.1-1.1 1.8-2.7 1.8-4.2 0-1.6-0.6-3.1-1.8-4.2 -1.1-1.1-2.7-1.8-4.2-1.8 -1.6 0-3.1 0.6-4.2 1.8 -1.1 1.1-1.8 2.7-1.8 4.2 0 1.6 0.6 3.1 1.8 4.2C338.7 81.4 340.2 82 341.8 82L341.8 82zM341.8 82"/><path d="M73 82c1.6 0 3.1-0.6 4.2-1.8 1.1-1.1 1.8-2.7 1.8-4.2 0-1.6-0.6-3.1-1.8-4.2C76.1 70.6 74.6 70 73 70c-1.6 0-3.1 0.6-4.2 1.8C67.6 72.9 67 74.4 67 76c0 1.6 0.6 3.1 1.8 4.2C69.9 81.4 71.4 82 73 82L73 82zM73 82"/><path d="M207.4 299.6c3.3 0 6-2.7 6-6v-19.2c0-3.3-2.7-6-6-6 -3.3 0-6 2.7-6 6v19.2C201.4 296.9 204.1 299.6 207.4 299.6L207.4 299.6zM207.4 299.6"/></svg>