<svg aria-hidden="true" style="position: absolute; width: 0; height: 0; overflow: hidden;" version="1.1" xmlns="http://www.w3.org/2000/svg" xmlns:xlink="http://www.w3.org/1999/xlink">
<defs>
<symbol id="icon-drone-2" viewBox="0 0 32 32">
<title>drone-2</title>
<path d="M5.602 25.999c-0.123 0-0.238 0.046-0.322 0.138-0.084 0.084-0.138 0.207-0.138 0.322 0 0.123 0.046 0.238 0.138 0.322 0.084 0.084 0.207 0.138 0.322 0.138 0.123 0 0.238-0.046 0.322-0.138 0.084-0.084 0.138-0.207 0.138-0.322 0-0.123-0.046-0.238-0.138-0.322-0.084-0.092-0.2-0.138-0.322-0.138v0z"></path>
<path d="M30.818 21.226l-3.584 3.584c-0.292-0.177-0.637-0.284-1.005-0.284-0.384 0-0.737 0.115-1.044 0.307-0.023-0.061-0.061-0.123-0.107-0.169l-4.911-4.911c-0.023-0.023-0.046-0.046-0.069-0.061l0.33-5.548c0.084-0.015 0.169-0.061 0.238-0.123l6.385-6.385c0.023-0.023 0.046-0.046 0.061-0.077 0.038-0.023 0.084-0.046 0.123-0.069l3.584 3.584c0.092 0.092 0.207 0.138 0.322 0.138s0.238-0.046 0.322-0.138c0.177-0.177 0.177-0.468 0-0.652l-3.584-3.584c0.177-0.292 0.284-0.637 0.284-1.005 0-1.067-0.867-1.934-1.934-1.934-0.368 0-0.714 0.1-1.005 0.284l-3.584-3.584c-0.177-0.176-0.468-0.176-0.652 0-0.177 0.176-0.177 0.468 0 0.652l3.584 3.584c-0.177 0.292-0.284 0.637-0.284 1.005 0 0.084 0.008 0.161 0.015 0.238l-4.612 3.231c-0.123-0.177-0.261-0.345-0.414-0.514-0.883-0.936-2.080-1.45-3.369-1.45s-2.486 0.514-3.369 1.45c-0.153 0.161-0.292 0.33-0.414 0.514l-4.604-3.238c0.008-0.077 0.015-0.161 0.015-0.238 0-0.368-0.1-0.706-0.284-1.005l3.584-3.584c0.177-0.176 0.177-0.468 0-0.652-0.177-0.176-0.468-0.176-0.652 0l-3.576 3.591c-0.292-0.176-0.637-0.284-1.005-0.284-1.067 0-1.934 0.867-1.934 1.934 0 0.368 0.1 0.714 0.284 1.005l-3.584 3.584c-0.176 0.177-0.176 0.468 0 0.652 0.092 0.092 0.207 0.138 0.322 0.138s0.238-0.046 0.322-0.138l3.584-3.584c0.038 0.023 0.084 0.046 0.123 0.069 0.015 0.031 0.038 0.054 0.061 0.077l6.385 6.385c0.069 0.069 0.153 0.107 0.238 0.123l0.33 5.548c-0.023 0.015-0.054 0.038-0.069 0.061l-4.911 4.911c-0.046 0.046-0.084 0.107-0.107 0.169-0.299-0.192-0.66-0.307-1.044-0.307-0.368 0-0.714 0.1-1.005 0.284l-3.584-3.584c-0.176-0.177-0.468-0.177-0.652 0-0.176 0.177-0.176 0.468 0 0.652l3.584 3.584c-0.176 0.292-0.284 0.637-0.284 1.005 0 1.067 0.867 1.934 1.934 1.934 0.368 0 0.714-0.1 1.005-0.284l3.584 3.584c0.092 0.092 0.207 0.138 0.322 0.138s0.238-0.046 0.322-0.138c0.177-0.177 0.177-0.468 0-0.652l-3.492-3.492 5.617-3.023c0.391 0.269 0.859 0.422 1.366 0.422h3.169c0.506 0 0.975-0.153 1.366-0.422l5.617 3.023-3.492 3.492c-0.177 0.177-0.177 0.468 0 0.652 0.092 0.092 0.207 0.138 0.322 0.138s0.238-0.046 0.322-0.138l3.584-3.584c0.292 0.177 0.637 0.284 1.005 0.284 1.067 0 1.934-0.867 1.934-1.934 0-0.368-0.1-0.714-0.284-1.005l3.599-3.591c0.177-0.177 0.177-0.468 0-0.652-0.177-0.177-0.468-0.177-0.645 0.008v0zM24.434 25.308c0.046 0.046 0.107 0.084 0.169 0.107-0.184 0.284-0.292 0.622-0.307 0.99l-4.758-2.563c0.223-0.338 0.361-0.737 0.384-1.174l0.107-1.765 4.405 4.405zM26.229 4.819c0.56 0 1.013 0.453 1.013 1.013s-0.453 1.013-1.013 1.013c-0.56 0-1.013-0.453-1.013-1.013s0.453-1.013 1.013-1.013v0zM24.656 6.953c0.246 0.345 0.606 0.606 1.028 0.737l-5.188 5.188 0.038-0.637c0.046-0.744-0.092-1.473-0.376-2.133l4.497-3.154zM13.214 9.424c0.084-0.092 0.177-0.177 0.276-0.261v1.090c0 0.253 0.207 0.46 0.46 0.46s0.46-0.207 0.46-0.46v-1.473c0-0.069-0.015-0.13-0.038-0.184 0.476-0.215 0.998-0.338 1.542-0.338s1.067 0.115 1.542 0.338c-0.023 0.054-0.038 0.123-0.038 0.184v1.473c0 0.253 0.207 0.46 0.46 0.46s0.46-0.207 0.46-0.46v-1.090c0.092 0.084 0.184 0.169 0.276 0.261 0.706 0.752 1.067 1.734 1.005 2.763l-0.614 10.436c-0.031 0.483-0.284 0.905-0.66 1.159v-11.565c0-0.253-0.207-0.46-0.46-0.46s-0.46 0.207-0.46 0.46v11.787c0 0.008 0 0.023 0 0.031h-3.008c0-0.008 0-0.023 0-0.031v-11.787c0-0.253-0.207-0.46-0.46-0.46s-0.46 0.207-0.46 0.46v11.565c-0.376-0.253-0.637-0.675-0.66-1.159l-0.614-10.436c-0.069-1.036 0.284-2.011 0.99-2.763v0zM5.602 4.819c0.56 0 1.013 0.453 1.013 1.013s-0.453 1.013-1.013 1.013c-0.56 0-1.013-0.453-1.013-1.013s0.453-1.013 1.013-1.013v0zM6.147 7.689c0.422-0.123 0.783-0.384 1.028-0.737l4.497 3.146c-0.292 0.66-0.422 1.389-0.376 2.133l0.038 0.637-5.188-5.18zM11.802 20.904l0.107 1.765c0.023 0.43 0.161 0.829 0.384 1.174l-4.758 2.563c-0.008-0.361-0.123-0.698-0.307-0.99 0.061-0.023 0.123-0.061 0.169-0.107l4.405-4.405zM5.602 27.472c-0.56 0-1.013-0.453-1.013-1.013s0.453-1.013 1.013-1.013c0.56 0 1.013 0.453 1.013 1.013s-0.453 1.013-1.013 1.013v0zM26.229 27.472c-0.56 0-1.013-0.453-1.013-1.013s0.453-1.013 1.013-1.013c0.56 0 1.013 0.453 1.013 1.013s-0.453 1.013-1.013 1.013v0z"></path>
<path d="M26.229 25.999c-0.123 0-0.238 0.046-0.322 0.138-0.084 0.084-0.138 0.207-0.138 0.322 0 0.123 0.046 0.238 0.138 0.322 0.084 0.084 0.207 0.138 0.322 0.138 0.123 0 0.238-0.046 0.322-0.138 0.084-0.084 0.138-0.207 0.138-0.322 0-0.123-0.046-0.238-0.138-0.322-0.084-0.092-0.2-0.138-0.322-0.138v0z"></path>
<path d="M26.229 6.293c0.123 0 0.238-0.046 0.322-0.138 0.084-0.084 0.138-0.207 0.138-0.322 0-0.123-0.046-0.238-0.138-0.322-0.084-0.084-0.207-0.138-0.322-0.138-0.123 0-0.238 0.046-0.322 0.138-0.084 0.084-0.138 0.207-0.138 0.322 0 0.123 0.046 0.238 0.138 0.322 0.084 0.092 0.2 0.138 0.322 0.138v0z"></path>
<path d="M5.602 6.293c0.123 0 0.238-0.046 0.322-0.138 0.084-0.084 0.138-0.207 0.138-0.322 0-0.123-0.046-0.238-0.138-0.322-0.084-0.092-0.2-0.138-0.322-0.138s-0.238 0.046-0.322 0.138c-0.092 0.084-0.138 0.2-0.138 0.322s0.046 0.238 0.138 0.322c0.084 0.092 0.2 0.138 0.322 0.138v0z"></path>
<path d="M15.916 22.991c0.253 0 0.46-0.207 0.46-0.46v-1.473c0-0.253-0.207-0.46-0.46-0.46s-0.46 0.207-0.46 0.46v1.473c0 0.253 0.207 0.46 0.46 0.46v0z"></path>
</symbol>
<symbol id="icon-phone" viewBox="0 0 22 28">
<title>phone</title>
<path d="M22 19.375c0 0.562-0.25 1.656-0.484 2.172-0.328 0.766-1.203 1.266-1.906 1.656-0.922 0.5-1.859 0.797-2.906 0.797-1.453 0-2.766-0.594-4.094-1.078-0.953-0.344-1.875-0.766-2.734-1.297-2.656-1.641-5.859-4.844-7.5-7.5-0.531-0.859-0.953-1.781-1.297-2.734-0.484-1.328-1.078-2.641-1.078-4.094 0-1.047 0.297-1.984 0.797-2.906 0.391-0.703 0.891-1.578 1.656-1.906 0.516-0.234 1.609-0.484 2.172-0.484 0.109 0 0.219 0 0.328 0.047 0.328 0.109 0.672 0.875 0.828 1.188 0.5 0.891 0.984 1.797 1.5 2.672 0.25 0.406 0.719 0.906 0.719 1.391 0 0.953-2.828 2.344-2.828 3.187 0 0.422 0.391 0.969 0.609 1.344 1.578 2.844 3.547 4.813 6.391 6.391 0.375 0.219 0.922 0.609 1.344 0.609 0.844 0 2.234-2.828 3.187-2.828 0.484 0 0.984 0.469 1.391 0.719 0.875 0.516 1.781 1 2.672 1.5 0.313 0.156 1.078 0.5 1.188 0.828 0.047 0.109 0.047 0.219 0.047 0.328z"></path>
</symbol>
</defs>
</svg>
